<?xml version="1.0" encoding="iso-8859-1"?>
<!-- Uploaded to: SVG Repo, www.svgrepo.com, Generator: SVG Repo Mixer Tools -->
<svg version="1.1" id="Layer_1" xmlns="http://www.w3.org/2000/svg" xmlns:xlink="http://www.w3.org/1999/xlink" 
	 viewBox="0 0 512 512" xml:space="preserve">
<path style="fill:#FF8E31;" d="M512,256c0,141.389-114.611,256-256.003,256C114.614,512,0,397.389,0,256S114.614,0,255.997,0
	C397.389,0,512,114.611,512,256z"/>
<path style="fill:#ED7425;" d="M509.007,295.224L330.936,117.174c-0.113-0.148-0.182-0.253-0.33-0.366l-2.086-2.086
	c-0.113-0.143-0.218-0.218-0.366-0.33c-3.328-2.767-7.578-4.439-12.186-4.611l-0.028-0.033c-0.253-0.036-0.479-0.036-0.73-0.036
	H196.792c-11.195,0-20.372,9.18-20.372,20.406v47.068l-31.852,41.001c0,1.024,0.113,2.022,0.302,2.998
	c0.059,0.323,0.164,0.62,0.246,0.934c0.166,0.645,0.348,1.28,0.589,1.897c0.131,0.33,0.289,0.64,0.44,0.963
	c0.269,0.576,0.571,1.132,0.909,1.672c0.172,0.271,0.348,0.532,0.532,0.794c0.169,0.238,0.31,0.499,0.492,0.724
	c0.036,0.036,0.072,0.113,0.108,0.148l0.701,0.699c0.241,0.264,0.492,0.517,0.758,0.758l0.699,0.699
	c0.038,0.036,0.11,0.077,0.146,0.113l25.93,25.928v125.363c0,5.632,2.304,10.719,5.998,14.413l112.737,112.735
	C405.166,492.137,492.091,405.228,509.007,295.224z"/>
<rect x="187.955" y="153.933" style="fill:#FFFFFF;" width="136.09" height="204.109"/>
<path style="fill:#34495E;" d="M315.213,109.714H196.8c-11.208,0-20.396,9.18-20.396,20.411v251.75
	c0,11.238,9.185,20.411,20.396,20.411h118.413c11.223,0,20.388-9.172,20.388-20.411v-251.75
	C335.601,118.894,326.436,109.714,315.213,109.714z M324.04,358.062H187.945V153.94h136.097v204.122H324.04z"/>
<g>
	<path style="fill:#283A4D;" d="M272.617,381.005c0,2.214-1.8,4.009-4.004,4.009h-25.226c-2.207,0-4.004-1.795-4.004-4.009v-1.664
		c0-2.197,1.797-4.001,4.004-4.001h25.226c2.204,0,4.004,1.805,4.004,4.001L272.617,381.005L272.617,381.005z"/>
	<path style="fill:#283A4D;" d="M261.14,131.825c0,2.836-2.284,5.128-5.128,5.128c-2.831,0-5.13-2.291-5.13-5.128
		c0-2.829,2.299-5.133,5.13-5.133C258.857,126.689,261.14,128.993,261.14,131.825z"/>
</g>
<circle style="fill:#5D6D7E;" cx="256" cy="131.814" r="2.058"/>
<polygon style="fill:#F2F9FF;" points="226.762,162.606 207.268,162.606 176.404,218.191 208.241,218.191 "/>
<polygon style="fill:#0684BA;" points="246.257,162.606 226.762,162.606 208.241,218.191 240.084,218.191 "/>
<polygon style="fill:#F2F9FF;" points="265.741,162.606 246.257,162.606 240.084,218.191 271.921,218.191 "/>
<polygon style="fill:#0684BA;" points="285.238,162.606 265.741,162.606 271.921,218.191 303.757,218.191 "/>
<polygon style="fill:#F2F9FF;" points="304.724,162.606 285.238,162.606 303.757,218.191 335.601,218.191 "/>
<path style="fill:#B8D1E6;" d="M208.241,218.191c0,8.778-7.13,15.913-15.923,15.913c-8.786,0-15.913-7.135-15.913-15.913
	C185.416,218.191,198.779,218.191,208.241,218.191z"/>
<path style="fill:#03628A;" d="M240.084,218.191c0,8.778-7.13,15.913-15.921,15.913c-8.794,0-15.921-7.135-15.921-15.913
	C217.252,218.191,230.63,218.191,240.084,218.191z"/>
<path style="fill:#B8D1E6;" d="M271.921,218.191c0,8.778-7.119,15.913-15.916,15.913c-8.794,0-15.921-7.135-15.921-15.913
	C249.093,218.191,262.467,218.191,271.921,218.191z"/>
<path style="fill:#03628A;" d="M303.757,218.191c0,8.778-7.122,15.913-15.908,15.913c-8.801,0-15.931-7.135-15.931-15.913
	C280.932,218.191,294.305,218.191,303.757,218.191z"/>
<g>
	<path style="fill:#B8D1E6;" d="M335.601,218.191c0,8.778-7.122,15.913-15.923,15.913c-8.786,0-15.921-7.135-15.921-15.913
		C312.783,218.191,326.134,218.191,335.601,218.191z"/>
	<rect x="207.268" y="153.933" style="fill:#B8D1E6;" width="19.494" height="8.666"/>
</g>
<rect x="226.765" y="153.933" style="fill:#03628A;" width="19.497" height="8.666"/>
<rect x="246.246" y="153.933" style="fill:#B8D1E6;" width="19.482" height="8.666"/>
<rect x="265.754" y="153.933" style="fill:#03628A;" width="19.497" height="8.666"/>
<polygon style="fill:#0684BA;" points="324.221,162.606 304.724,162.606 335.601,218.191 367.434,218.191 "/>
<g>
	<path style="fill:#03628A;" d="M367.434,218.191c0,8.778-7.119,15.913-15.908,15.913c-8.801,0-15.928-7.135-15.928-15.913
		C344.609,218.191,357.975,218.191,367.434,218.191z"/>
	<rect x="304.717" y="153.933" style="fill:#03628A;" width="19.497" height="8.666"/>
</g>
<polygon style="fill:#0684BA;" points="207.268,162.606 187.776,162.606 144.563,218.191 176.404,218.191 "/>
<g>
	<path style="fill:#03628A;" d="M176.404,218.191c0,8.778-7.122,15.913-15.916,15.913c-8.801,0-15.928-7.135-15.928-15.913
		C153.58,218.191,166.945,218.191,176.404,218.191z"/>
	<rect x="187.776" y="153.933" style="fill:#03628A;" width="19.492" height="8.666"/>
</g>
<rect x="285.235" y="153.933" style="fill:#B8D1E6;" width="19.487" height="8.666"/>
<path style="fill:#FF8E31;" d="M272.179,292.831h-32.356c-1.126,0-2.202-0.353-3.103-1.032c-0.909-0.668-1.564-1.597-1.882-2.67
	l-10.465-34.516h-16.161v-6.246h16.932c1.124,0,2.199,0.356,3.1,1.029c0.916,0.668,1.569,1.6,1.884,2.668l10.468,34.511h30.807
	l6.454-21.281h-39.35l-1.894-6.252h42.662c1.636,0,3.195,0.796,4.178,2.115c0.978,1.308,1.285,3.039,0.806,4.608l-7.078,23.365
	c-0.33,1.085-0.986,2.002-1.882,2.67C274.394,292.477,273.313,292.831,272.179,292.831z M272.21,269.555h-32.417l1.295,4.252h29.837
	L272.21,269.555z M269.637,278.062l-1.29,4.26h-24.684l-1.285-4.26H269.637z M244.431,294.812c-3.133,0-5.676,2.534-5.676,5.681
	c0,3.128,2.542,5.668,5.676,5.668c3.133,0,5.673-2.54,5.673-5.668C250.104,297.347,247.565,294.812,244.431,294.812z
	 M267.574,294.812c-3.133,0-5.676,2.534-5.676,5.681c0,3.128,2.542,5.668,5.676,5.668c3.131,0,5.673-2.54,5.673-5.668
	C273.247,297.347,270.705,294.812,267.574,294.812z"/>
<g>
	<rect x="219.725" y="329.574" style="fill:#0575A5;" width="8.343" height="1.17"/>
	
		<rect x="221.363" y="323.316" transform="matrix(-0.7076 -0.7067 0.7067 -0.7076 156.224 712.4496)" style="fill:#0575A5;" width="8.338" height="1.165"/>
	
		<rect x="221.388" y="335.875" transform="matrix(-0.7076 0.7067 -0.7067 -0.7076 622.912 415.1294)" style="fill:#0575A5;" width="8.338" height="1.165"/>
	<rect x="283.93" y="329.574" style="fill:#0575A5;" width="8.343" height="1.17"/>
	<polygon style="fill:#0575A5;" points="283.937,327.242 289.846,321.349 289.014,320.527 283.123,326.42 	"/>
	<polygon style="fill:#0575A5;" points="283.937,333.1 289.846,338.993 289.014,339.814 283.123,333.921 	"/>
	<path style="fill:#0575A5;" d="M278.861,337.508c0,1.27-1.024,2.307-2.296,2.307h-41.124c-1.257,0-2.296-1.037-2.296-2.307v-14.697
		c0-1.254,1.039-2.289,2.296-2.289h41.121c1.272,0,2.296,1.032,2.296,2.289v14.697H278.861z"/>
</g>
<path style="fill:#479ABD;" d="M278.861,330.166v-7.355c0-1.254-1.024-2.289-2.296-2.289h-41.124c-1.257,0-2.296,1.032-2.296,2.289
	v7.355H278.861z"/>
<path style="fill:#FFFFFF;" d="M250.199,329.864c0.328-0.141,0.581-0.374,0.771-0.653c0.189-0.294,0.276-0.62,0.276-0.963
	c0-0.335-0.074-0.617-0.218-0.893c-0.161-0.251-0.358-0.458-0.584-0.609c-0.236-0.161-0.494-0.266-0.768-0.317
	c-0.31-0.049-0.742-0.061-1.329-0.061h-2.998v7.48h2.545c0.96-0.015,1.577-0.031,1.823-0.054c0.394-0.051,0.745-0.161,1.011-0.356
	c0.274-0.189,0.499-0.451,0.645-0.773c0.161-0.317,0.246-0.66,0.246-0.988c0-0.443-0.118-0.806-0.376-1.134
	C251.005,330.22,250.657,329.992,250.199,329.864z M246.866,327.596h0.865c0.701,0,1.144,0.005,1.285,0.036
	c0.259,0.028,0.443,0.118,0.568,0.256c0.133,0.151,0.197,0.335,0.197,0.566c0,0.251-0.077,0.435-0.22,0.589
	c-0.151,0.146-0.361,0.248-0.607,0.266c-0.148,0.02-0.52,0.028-1.096,0.028h-0.993V327.596z M249.848,332.234
	c-0.151,0.156-0.325,0.259-0.55,0.292c-0.143,0.033-0.492,0.054-1.032,0.054h-1.4v-1.994h1.211c0.694,0,1.142,0.028,1.352,0.1
	c0.2,0.069,0.356,0.192,0.476,0.335c0.108,0.156,0.154,0.353,0.154,0.571C250.056,331.866,249.987,332.078,249.848,332.234z
	 M257.341,326.364h1.503v3.917c0,0.893-0.036,1.541-0.123,1.905c-0.072,0.374-0.223,0.681-0.428,0.94
	c-0.238,0.251-0.527,0.466-0.906,0.607c-0.366,0.154-0.837,0.243-1.426,0.243c-0.73,0-1.265-0.097-1.628-0.266
	c-0.374-0.166-0.645-0.369-0.87-0.645c-0.218-0.246-0.358-0.538-0.428-0.814c-0.092-0.428-0.148-1.075-0.148-1.917v-3.968h1.51
	v4.047c0,0.637,0.015,1.057,0.051,1.244c0.077,0.305,0.22,0.55,0.456,0.732c0.261,0.189,0.589,0.274,1.011,0.274
	c0.425,0,0.75-0.069,0.963-0.253c0.228-0.177,0.358-0.394,0.387-0.64c0.059-0.261,0.079-0.689,0.079-1.277v-4.127H257.341z
	 M266.668,326.364l-2.744,4.324v3.154h-1.518v-3.159l-2.739-4.321h1.777l1.761,2.949l1.72-2.949h1.743V326.364z"/>
</svg>